<?xml version="1.0" standalone="no"?>
<!DOCTYPE svg PUBLIC "-//W3C//DTD SVG 20010904//EN"
 "http://www.w3.org/TR/2001/REC-SVG-20010904/DTD/svg10.dtd">
<svg version="1.0" xmlns="http://www.w3.org/2000/svg"
 width="256.000000pt" height="256.000000pt" viewBox="0 0 256.000000 256.000000"
 preserveAspectRatio="xMidYMid meet">

<g transform="translate(0.000000,256.000000) scale(0.100000,-0.100000)"
fill="#000000" stroke="none">
<path d="M222 2540 c-65 -40 -62 29 -62 -1260 0 -1289 -3 -1220 62 -1260 32
-20 48 -20 878 -20 825 0 846 1 877 20 39 24 40 30 9 59 -20 19 -28 21 -44 12
-15 -8 -271 -11 -846 -11 -736 0 -826 2 -840 16 -14 14 -16 135 -16 1184 0
1049 2 1170 16 1184 14 14 76 16 540 16 l524 0 0 -215 c0 -235 5 -262 58 -319
57 -61 83 -66 345 -66 l237 0 0 -277 c0 -275 1 -279 27 -358 23 -70 27 -96 27
-205 0 -107 -4 -136 -26 -202 l-25 -76 21 -5 c11 -2 29 -8 39 -12 16 -7 17 25
17 593 l0 601 -327 310 -328 310 -565 0 c-550 1 -566 0 -598 -19z m1564 -471
l110 -104 -198 -3 c-221 -3 -242 2 -278 61 -18 29 -20 51 -20 221 l0 188 138
-129 c75 -71 187 -177 248 -234z"/>
<path d="M540 2258 c-132 -67 -132 -249 0 -315 24 -13 60 -23 80 -23 20 0 56
10 80 23 132 66 132 248 0 315 -24 12 -60 22 -80 22 -20 0 -56 -10 -80 -22z
m129 -72 c67 -35 65 -143 -4 -174 -51 -23 -107 -7 -131 39 -47 91 44 182 135
135z"/>
<path d="M452 1788 c-16 -16 -15 -43 2 -57 9 -8 186 -10 641 -9 585 3 629 4
639 21 8 12 8 22 0 35 -10 16 -54 17 -641 20 -481 2 -632 -1 -641 -10z"/>
<path d="M452 1628 c-7 -7 -12 -19 -12 -28 0 -37 18 -40 242 -40 l217 0 57 40
57 40 -274 0 c-201 0 -278 -3 -287 -12z"/>
<path d="M1196 1624 c-196 -47 -369 -207 -428 -396 -33 -104 -32 -284 1 -378
82 -233 288 -390 532 -407 130 -9 264 28 382 104 l27 18 37 -37 c30 -31 34
-39 24 -52 -7 -8 -11 -22 -9 -30 5 -22 405 -434 429 -441 25 -8 49 11 49 38 0
13 -70 90 -191 213 -215 216 -202 187 -121 279 38 44 44 47 60 33 9 -8 87 -75
172 -148 85 -74 163 -140 172 -148 30 -25 76 6 62 41 -7 18 -402 361 -421 365
-8 2 -22 -3 -31 -11 -15 -14 -21 -12 -55 17 l-38 32 31 65 c81 174 77 373 -12
542 -72 138 -237 266 -390 302 -78 18 -204 18 -282 -1z m263 -79 c187 -44 342
-199 386 -386 65 -276 -110 -558 -386 -624 -276 -65 -558 110 -624 386 -88
373 251 712 624 624z m373 -922 c24 -25 25 -30 12 -48 -14 -19 -15 -18 -46 12
-27 27 -29 34 -18 47 17 22 22 20 52 -11z"/>
<path d="M1312 1468 c-16 -16 -15 -43 1 -55 6 -6 36 -13 65 -16 164 -19 298
-155 320 -323 8 -63 29 -87 60 -68 23 15 27 56 12 124 -28 125 -115 242 -221
296 -96 48 -210 69 -237 42z"/>
<path d="M1670 905 c-26 -32 13 -81 48 -59 34 22 22 74 -18 74 -10 0 -23 -7
-30 -15z"/>
<path d="M452 1468 c-7 -7 -12 -19 -12 -28 0 -35 21 -40 175 -40 l150 1 27 39
28 40 -178 0 c-125 0 -182 -4 -190 -12z"/>
<path d="M452 1308 c-7 -7 -12 -20 -12 -29 0 -33 24 -40 140 -37 l113 3 13 38
13 37 -128 0 c-85 0 -131 -4 -139 -12z"/>
<path d="M452 1148 c-7 -7 -12 -19 -12 -28 0 -33 22 -40 121 -40 l97 0 6 31
c3 17 6 35 6 40 0 14 -204 11 -218 -3z"/>
<path d="M452 988 c-7 -7 -12 -19 -12 -28 0 -33 22 -40 128 -40 l105 0 -7 31
c-3 17 -6 35 -6 40 0 14 -194 11 -208 -3z"/>
<path d="M452 828 c-7 -7 -12 -20 -12 -29 0 -34 24 -40 153 -37 l125 3 -15 38
-15 37 -112 0 c-74 0 -116 -4 -124 -12z"/>
<path d="M452 668 c-7 -7 -12 -19 -12 -28 0 -36 20 -40 202 -40 l178 0 -28 40
-27 39 -150 1 c-105 0 -155 -4 -163 -12z"/>
<path d="M452 508 c-7 -7 -12 -19 -12 -28 0 -38 16 -40 299 -40 l274 0 -57 40
-57 40 -217 0 c-156 0 -221 -3 -230 -12z"/>
</g>
</svg>
